<svg xmlns="http://www.w3.org/2000/svg" viewBox="0 0 900 900" role="img" aria-labelledby="title desc">
  <title id="title">肥窝的原创二次元头像卡片</title>
  <desc id="desc">柔和粉色和薄荷色构成的原创可爱风头像插画。</desc>
  <defs>
    <linearGradient id="bg" x1="0" x2="1" y1="0" y2="1">
      <stop offset="0" stop-color="#ffe7f1"/>
      <stop offset="0.45" stop-color="#f7edff"/>
      <stop offset="1" stop-color="#dffaf4"/>
    </linearGradient>
    <linearGradient id="hair" x1="0.15" x2="0.9" y1="0.1" y2="0.9">
      <stop offset="0" stop-color="#7a4d76"/>
      <stop offset="1" stop-color="#3f345d"/>
    </linearGradient>
    <filter id="soft" x="-20%" y="-20%" width="140%" height="140%">
      <feDropShadow dx="0" dy="22" stdDeviation="18" flood-color="#af7eb3" flood-opacity="0.28"/>
    </filter>
  </defs>
  <rect width="900" height="900" rx="48" fill="url(#bg)"/>
  <path d="M108 180c62-78 144-94 224-48 67 38 122 25 188-4 87-39 185-3 232 77 54 95 20 198-72 239-77 34-143-8-212 38-72 49-88 148-195 146-115-2-183-97-171-197 8-66-38-102-18-171 7-25 15-52 24-80Z" fill="#fff7fb" opacity=".72"/>
  <g filter="url(#soft)">
    <path d="M312 317c20-96 95-157 184-157 98 0 170 70 188 174 17 101-27 210-68 264-39 52-88 82-146 82-62 0-124-33-157-89-43-72-24-165-1-274Z" fill="url(#hair)"/>
    <path d="M277 416c-18-94 20-199 101-257 56-41 147-50 215-14 62 33 107 98 121 174-99-37-229-52-437 97Z" fill="#8e5d8d"/>
    <path d="M341 432c-12 120 49 204 136 204 88 0 151-74 145-205-78-38-187-38-281 1Z" fill="#ffe6d6"/>
    <path d="M367 413c25-76 92-114 164-114 76 0 141 45 165 122-142-42-230-34-329-8Z" fill="#62456d"/>
    <circle cx="397" cy="492" r="15" fill="#4b3c56"/>
    <circle cx="538" cy="492" r="15" fill="#4b3c56"/>
    <circle cx="391" cy="487" r="5" fill="#fff"/>
    <circle cx="532" cy="487" r="5" fill="#fff"/>
    <path d="M457 549c22 17 46 17 68 0" fill="none" stroke="#cf6f8d" stroke-width="10" stroke-linecap="round"/>
    <circle cx="352" cy="533" r="24" fill="#ffacc4" opacity=".65"/>
    <circle cx="585" cy="533" r="24" fill="#ffacc4" opacity=".65"/>
    <path d="M344 275c-50-40-96-47-142-20 26 31 60 53 111 62" fill="#ffb4cf"/>
    <path d="M601 235c36-52 79-70 130-55-15 39-45 69-93 91" fill="#b9f1e7"/>
    <path d="M326 657c92 76 218 77 296 0 48 43 74 87 82 132H242c8-47 36-91 84-132Z" fill="#fff4b7"/>
  </g>
  <g fill="none" stroke-linecap="round" stroke-linejoin="round">
    <path d="M162 704l34 20 34-20-20 34 20 34-34-20-34 20 20-34-20-34Z" fill="#fff4a8" stroke="#5d4a70" stroke-width="8"/>
    <path d="M707 122l22 13 22-13-13 22 13 22-22-13-22 13 13-22-13-22Z" fill="#f8b9d2" stroke="#5d4a70" stroke-width="7"/>
    <path d="M690 670c35 0 64 28 64 64 0 35-29 64-64 64s-64-29-64-64c0-36 29-64 64-64Z" fill="#dffaf4" stroke="#5d4a70" stroke-width="8"/>
    <path d="M666 730h48M690 706v48" stroke="#5d4a70" stroke-width="9"/>
  </g>
</svg>
